<svg width="1600" height="420" viewBox="0 0 1600 420" fill="none" xmlns="http://www.w3.org/2000/svg">
<defs>
  <linearGradient id="bg" x1="0" y1="0" x2="1600" y2="420" gradientUnits="userSpaceOnUse">
    <stop stop-color="#071015"/>
    <stop offset="0.55" stop-color="#0B151D"/>
    <stop offset="1" stop-color="#11162A"/>
  </linearGradient>
  <linearGradient id="accent" x1="220" y1="80" x2="1370" y2="350" gradientUnits="userSpaceOnUse">
    <stop stop-color="#4DE4D2"/>
    <stop offset="0.55" stop-color="#6AA7FF"/>
    <stop offset="1" stop-color="#A685FF"/>
  </linearGradient>
  <filter id="glow" x="-50%" y="-50%" width="200%" height="200%">
    <feGaussianBlur stdDeviation="14" result="blur"/>
    <feMerge><feMergeNode in="blur"/><feMergeNode in="SourceGraphic"/></feMerge>
  </filter>
</defs>

<rect width="1600" height="420" rx="32" fill="url(#bg)"/>
<circle cx="1340" cy="90" r="180" fill="#5D9CFF" opacity="0.08"/>
<circle cx="180" cy="340" r="220" fill="#37E6D1" opacity="0.07"/>

<!-- fingerprint rings -->
<g transform="translate(1110 70)" stroke="url(#accent)" stroke-width="7" opacity="0.95" filter="url(#glow)">
  <path d="M140 6C72 6 17 56 17 119c0 45 22 81 45 108 18 21 25 49 23 79" />
  <path d="M140 30C88 30 46 67 46 119c0 34 18 62 39 87 18 21 23 51 19 76" />
  <path d="M140 54c-36 0-65 28-65 65 0 25 12 45 31 66 19 21 21 49 13 72" />
  <path d="M140 78c-21 0-38 17-38 38 0 16 8 29 21 45 19 21 17 46 9 67" />
  <path d="M140 102c-8 0-14 6-14 14 0 8 5 15 13 25 14 18 12 37 5 54" />
  <path d="M140 0v145c0 53 30 92 73 92 35 0 63-21 73-50" />
</g>

<text x="92" y="110" fill="#79A9FF" font-family="Arial, Helvetica, sans-serif" font-size="20" font-weight="700" letter-spacing="4">DEEP LEARNING • COMPUTER VISION • EXPLAINABLE AI</text>

<text x="92" y="185" fill="#F7FBFF" font-family="Arial, Helvetica, sans-serif" font-size="58" font-weight="800">
  Fingerprint Blood Group
</text>
<text x="92" y="255" fill="url(#accent)" font-family="Arial, Helvetica, sans-serif" font-size="58" font-weight="800">
  Prediction
</text>

<text x="94" y="305" fill="#99A9B5" font-family="Arial, Helvetica, sans-serif" font-size="21">
  EfficientNetB0 · 10-sample consensus · Grad-CAM explainability
</text>

<rect x="94" y="334" width="170" height="42" rx="21" fill="#15232C" stroke="#37E6D1" stroke-opacity="0.35"/>
<text x="126" y="362" fill="#8CEDE3" font-family="Arial, Helvetica, sans-serif" font-size="17" font-weight="700">97.47% accuracy</text>

<rect x="278" y="334" width="145" height="42" rx="21" fill="#15202E" stroke="#6AA7FF" stroke-opacity="0.35"/>
<text x="320" y="362" fill="#A8C8FF" font-family="Arial, Helvetica, sans-serif" font-size="17" font-weight="700">6,000 images</text>

<rect x="438" y="334" width="108" height="42" rx="21" fill="#191729" stroke="#A685FF" stroke-opacity="0.35"/>
<text x="468" y="362" fill="#C5B8FF" font-family="Arial, Helvetica, sans-serif" font-size="17" font-weight="700">8 classes</text>
</svg>
